<svg width="50" height="50" xmlns="http://www.w3.org/2000/svg">

 <g>
  <title>background</title>
  <rect fill="none" id="canvas_background" height="52" width="52" y="-1" x="-1"/>
 </g>
 <g>
  <title>Layer 1</title>
  <path stroke="null" id="svg_1" fill-rule="evenodd" fill="#ff0000" d="m12.313321,44.303477c0,2.165521 1.978392,3.919465 4.421029,3.919465l16.579833,0c2.442759,0 4.421151,-1.753945 4.421151,-3.919465l0,-1.146503c0,-0.920654 0.719117,-1.69581 1.690551,-1.900628c5.306208,-0.725435 9.362874,-4.792339 9.362874,-9.691886c0,-2.204672 -0.818632,-4.243031 -2.210758,-5.879521l0,-6.702458c0,-9.828863 -9.650107,-17.795494 -21.553673,-17.795494s-21.553673,7.966631 -21.553673,17.795494l0,6.702458c-1.392369,1.63649 -2.210515,3.674741 -2.210515,5.879521c0,4.899655 4.056422,8.966559 9.361657,9.691886c0.972772,0.204817 1.691646,0.979974 1.691646,1.900628l0,1.146503l-0.000122,0zm-2.210758,-19.598513c0,-2.704366 2.476214,-4.899439 5.526651,-4.899439c3.050315,0 5.52653,2.195073 5.52653,4.899439c0,2.704151 -2.476214,4.899547 -5.52653,4.899547c-3.050437,0 -5.526651,-2.195397 -5.526651,-4.899547zm18.790225,0c0,-2.704366 2.476214,-4.899439 5.526895,-4.899439c3.050437,0 5.526651,2.195073 5.526651,4.899439c0,2.704151 -2.476214,4.899547 -5.526651,4.899547c-3.050802,0 -5.526895,-2.195397 -5.526895,-4.899547zm-9.318225,10.465317l3.89109,-3.448892c0.862307,-0.76491 2.25492,-0.76491 3.117227,0l3.89036,3.448892c0.839801,0.744202 0.839801,1.950026 0,2.694767c-0.839923,0.744202 -2.199687,0.744202 -3.039488,0l-2.409303,-2.13586l-2.410276,2.135968c-0.838706,0.744202 -2.198835,0.744202 -3.039488,0c-0.838949,-0.744849 -0.838949,-1.950565 -0.000122,-2.694875z" clip-rule="evenodd"/>
 </g>
</svg>